<mxfile host="app.diagrams.net" agent="Mozilla/5.0 (Windows NT 10.0; Win64; x64) AppleWebKit/537.36 (KHTML, like Gecko) Chrome/129.0.0.0 Safari/537.36" version="24.7.17">
  <diagram name="Page-1" id="2YBvvXClWsGukQMizWep">
    <mxGraphModel dx="1536" dy="547" grid="1" gridSize="10" guides="1" tooltips="1" connect="1" arrows="1" fold="1" page="1" pageScale="1" pageWidth="850" pageHeight="1100" math="0" shadow="0">
      <root>
        <mxCell id="0" />
        <mxCell id="1" parent="0" />
        <mxCell id="aM9ryv3xv72pqoxQDRHE-1" value="client" style="shape=umlLifeline;perimeter=lifelinePerimeter;whiteSpace=wrap;html=1;container=0;dropTarget=0;collapsible=0;recursiveResize=0;outlineConnect=0;portConstraint=eastwest;newEdgeStyle={&quot;edgeStyle&quot;:&quot;elbowEdgeStyle&quot;,&quot;elbow&quot;:&quot;vertical&quot;,&quot;curved&quot;:0,&quot;rounded&quot;:0};fontSize=12;" parent="1" vertex="1">
          <mxGeometry x="80" y="40" width="100" height="520" as="geometry" />
        </mxCell>
        <mxCell id="aM9ryv3xv72pqoxQDRHE-2" value="" style="html=1;points=[];perimeter=orthogonalPerimeter;outlineConnect=0;targetShapes=umlLifeline;portConstraint=eastwest;newEdgeStyle={&quot;edgeStyle&quot;:&quot;elbowEdgeStyle&quot;,&quot;elbow&quot;:&quot;vertical&quot;,&quot;curved&quot;:0,&quot;rounded&quot;:0};fontSize=12;" parent="aM9ryv3xv72pqoxQDRHE-1" vertex="1">
          <mxGeometry x="45" y="70" width="10" height="400" as="geometry" />
        </mxCell>
        <mxCell id="aM9ryv3xv72pqoxQDRHE-3" value="dispatch" style="html=1;verticalAlign=bottom;startArrow=oval;endArrow=block;startSize=8;edgeStyle=elbowEdgeStyle;elbow=vertical;curved=0;rounded=0;fontSize=12;" parent="aM9ryv3xv72pqoxQDRHE-1" target="aM9ryv3xv72pqoxQDRHE-2" edge="1">
          <mxGeometry relative="1" as="geometry">
            <mxPoint x="-15" y="70" as="sourcePoint" />
          </mxGeometry>
        </mxCell>
        <mxCell id="aM9ryv3xv72pqoxQDRHE-7" value="Criação de pedido" style="html=1;verticalAlign=bottom;endArrow=block;edgeStyle=elbowEdgeStyle;elbow=vertical;curved=0;rounded=0;fontSize=12;" parent="1" source="aM9ryv3xv72pqoxQDRHE-2" target="Ftf5trDqvGnBrvdmExgI-2" edge="1">
          <mxGeometry relative="1" as="geometry">
            <mxPoint x="235" y="130" as="sourcePoint" />
            <Array as="points">
              <mxPoint x="220" y="120" />
            </Array>
            <mxPoint x="305" y="120" as="targetPoint" />
          </mxGeometry>
        </mxCell>
        <mxCell id="aM9ryv3xv72pqoxQDRHE-8" value="return dados do pedido&lt;br style=&quot;font-size: 12px;&quot;&gt;return QR Code" style="html=1;verticalAlign=bottom;endArrow=open;dashed=1;endSize=8;edgeStyle=elbowEdgeStyle;elbow=vertical;curved=0;rounded=0;fontSize=12;" parent="1" edge="1">
          <mxGeometry relative="1" as="geometry">
            <mxPoint x="135" y="500" as="targetPoint" />
            <Array as="points">
              <mxPoint x="230" y="500" />
            </Array>
            <mxPoint x="319.5" y="500" as="sourcePoint" />
          </mxGeometry>
        </mxCell>
        <mxCell id="Ftf5trDqvGnBrvdmExgI-1" value="tech-challenge-group-12" style="shape=umlLifeline;perimeter=lifelinePerimeter;whiteSpace=wrap;html=1;container=0;dropTarget=0;collapsible=0;recursiveResize=0;outlineConnect=0;portConstraint=eastwest;newEdgeStyle={&quot;edgeStyle&quot;:&quot;elbowEdgeStyle&quot;,&quot;elbow&quot;:&quot;vertical&quot;,&quot;curved&quot;:0,&quot;rounded&quot;:0};fontSize=12;" vertex="1" parent="1">
          <mxGeometry x="270" y="40" width="100" height="520" as="geometry" />
        </mxCell>
        <mxCell id="Ftf5trDqvGnBrvdmExgI-2" value="" style="html=1;points=[];perimeter=orthogonalPerimeter;outlineConnect=0;targetShapes=umlLifeline;portConstraint=eastwest;newEdgeStyle={&quot;edgeStyle&quot;:&quot;elbowEdgeStyle&quot;,&quot;elbow&quot;:&quot;vertical&quot;,&quot;curved&quot;:0,&quot;rounded&quot;:0};fontSize=12;" vertex="1" parent="Ftf5trDqvGnBrvdmExgI-1">
          <mxGeometry x="45" y="70" width="10" height="400" as="geometry" />
        </mxCell>
        <mxCell id="Ftf5trDqvGnBrvdmExgI-13" value="database&lt;br style=&quot;font-size: 12px;&quot;&gt;techchallenge" style="shape=umlLifeline;perimeter=lifelinePerimeter;whiteSpace=wrap;html=1;container=0;dropTarget=0;collapsible=0;recursiveResize=0;outlineConnect=0;portConstraint=eastwest;newEdgeStyle={&quot;edgeStyle&quot;:&quot;elbowEdgeStyle&quot;,&quot;elbow&quot;:&quot;vertical&quot;,&quot;curved&quot;:0,&quot;rounded&quot;:0};fontSize=12;" vertex="1" parent="1">
          <mxGeometry x="500" y="40" width="100" height="520" as="geometry" />
        </mxCell>
        <mxCell id="Ftf5trDqvGnBrvdmExgI-14" value="" style="html=1;points=[];perimeter=orthogonalPerimeter;outlineConnect=0;targetShapes=umlLifeline;portConstraint=eastwest;newEdgeStyle={&quot;edgeStyle&quot;:&quot;elbowEdgeStyle&quot;,&quot;elbow&quot;:&quot;vertical&quot;,&quot;curved&quot;:0,&quot;rounded&quot;:0};fontSize=12;" vertex="1" parent="Ftf5trDqvGnBrvdmExgI-13">
          <mxGeometry x="45" y="70" width="10" height="400" as="geometry" />
        </mxCell>
        <mxCell id="Ftf5trDqvGnBrvdmExgI-15" value="Consulta informações produtos&lt;div style=&quot;font-size: 12px;&quot;&gt;TABELA:&amp;nbsp;PRODUCT&lt;/div&gt;" style="html=1;verticalAlign=bottom;endArrow=block;edgeStyle=elbowEdgeStyle;elbow=vertical;curved=0;rounded=0;fontSize=12;" edge="1" parent="1" source="Ftf5trDqvGnBrvdmExgI-2" target="Ftf5trDqvGnBrvdmExgI-14">
          <mxGeometry relative="1" as="geometry">
            <mxPoint x="350" y="140" as="sourcePoint" />
            <Array as="points">
              <mxPoint x="435" y="140" />
            </Array>
            <mxPoint x="530" y="140" as="targetPoint" />
          </mxGeometry>
        </mxCell>
        <mxCell id="Ftf5trDqvGnBrvdmExgI-16" value="return" style="html=1;verticalAlign=bottom;endArrow=open;dashed=1;endSize=8;edgeStyle=elbowEdgeStyle;elbow=vertical;curved=0;rounded=0;fontSize=12;" edge="1" parent="1" source="Ftf5trDqvGnBrvdmExgI-14">
          <mxGeometry relative="1" as="geometry">
            <mxPoint x="325" y="160" as="targetPoint" />
            <Array as="points">
              <mxPoint x="415" y="160" />
            </Array>
            <mxPoint x="505" y="160" as="sourcePoint" />
          </mxGeometry>
        </mxCell>
        <mxCell id="Ftf5trDqvGnBrvdmExgI-17" value="Consulta informações cliente&lt;div style=&quot;font-size: 12px;&quot;&gt;TABELA:&amp;nbsp;CUSTOMER&lt;/div&gt;" style="html=1;verticalAlign=bottom;endArrow=block;edgeStyle=elbowEdgeStyle;elbow=vertical;curved=0;rounded=0;fontSize=12;" edge="1" parent="1" source="Ftf5trDqvGnBrvdmExgI-2" target="Ftf5trDqvGnBrvdmExgI-14">
          <mxGeometry relative="1" as="geometry">
            <mxPoint x="360" y="220" as="sourcePoint" />
            <Array as="points">
              <mxPoint x="470" y="220" />
            </Array>
            <mxPoint x="540" y="220" as="targetPoint" />
          </mxGeometry>
        </mxCell>
        <mxCell id="Ftf5trDqvGnBrvdmExgI-18" value="return" style="html=1;verticalAlign=bottom;endArrow=open;dashed=1;endSize=8;edgeStyle=elbowEdgeStyle;elbow=vertical;curved=0;rounded=0;fontSize=12;" edge="1" parent="1" source="Ftf5trDqvGnBrvdmExgI-14">
          <mxGeometry relative="1" as="geometry">
            <mxPoint x="325" y="240" as="targetPoint" />
            <Array as="points">
              <mxPoint x="400" y="240" />
            </Array>
            <mxPoint x="505" y="240" as="sourcePoint" />
          </mxGeometry>
        </mxCell>
        <mxCell id="Ftf5trDqvGnBrvdmExgI-19" value="Grava pedido&lt;div style=&quot;font-size: 12px;&quot;&gt;TABELA:&amp;nbsp;CUSTOMER_ORDER&lt;/div&gt;" style="html=1;verticalAlign=bottom;endArrow=block;edgeStyle=elbowEdgeStyle;elbow=vertical;curved=0;rounded=0;fontSize=12;" edge="1" parent="1" target="Ftf5trDqvGnBrvdmExgI-14">
          <mxGeometry relative="1" as="geometry">
            <mxPoint x="325" y="281" as="sourcePoint" />
            <Array as="points">
              <mxPoint x="320" y="291" />
            </Array>
            <mxPoint x="505" y="281" as="targetPoint" />
          </mxGeometry>
        </mxCell>
        <mxCell id="Ftf5trDqvGnBrvdmExgI-20" value="return" style="html=1;verticalAlign=bottom;endArrow=open;dashed=1;endSize=8;edgeStyle=elbowEdgeStyle;elbow=vertical;curved=0;rounded=0;fontSize=12;" edge="1" parent="1" source="Ftf5trDqvGnBrvdmExgI-14">
          <mxGeometry relative="1" as="geometry">
            <mxPoint x="325" y="309.99999999999994" as="targetPoint" />
            <Array as="points">
              <mxPoint x="375" y="310" />
            </Array>
            <mxPoint x="505" y="309.99999999999994" as="sourcePoint" />
          </mxGeometry>
        </mxCell>
        <mxCell id="Ftf5trDqvGnBrvdmExgI-24" value="Grava produtos do pedido&lt;div style=&quot;font-size: 12px;&quot;&gt;TABELA:&amp;nbsp;ORDER_PRODUCT&lt;/div&gt;" style="html=1;verticalAlign=bottom;endArrow=block;edgeStyle=elbowEdgeStyle;elbow=vertical;curved=0;rounded=0;fontSize=12;" edge="1" parent="1" target="Ftf5trDqvGnBrvdmExgI-14">
          <mxGeometry relative="1" as="geometry">
            <mxPoint x="325" y="440" as="sourcePoint" />
            <Array as="points">
              <mxPoint x="420" y="450" />
            </Array>
            <mxPoint x="505" y="450" as="targetPoint" />
          </mxGeometry>
        </mxCell>
        <mxCell id="Ftf5trDqvGnBrvdmExgI-25" value="return" style="html=1;verticalAlign=bottom;endArrow=open;dashed=1;endSize=8;edgeStyle=elbowEdgeStyle;elbow=vertical;curved=0;rounded=0;fontSize=12;" edge="1" parent="1" source="Ftf5trDqvGnBrvdmExgI-14">
          <mxGeometry relative="1" as="geometry">
            <mxPoint x="325" y="470" as="targetPoint" />
            <Array as="points">
              <mxPoint x="380" y="470" />
            </Array>
            <mxPoint x="505" y="470" as="sourcePoint" />
          </mxGeometry>
        </mxCell>
        <mxCell id="Ftf5trDqvGnBrvdmExgI-27" value="payment-service" style="shape=umlLifeline;perimeter=lifelinePerimeter;whiteSpace=wrap;html=1;container=0;dropTarget=0;collapsible=0;recursiveResize=0;outlineConnect=0;portConstraint=eastwest;newEdgeStyle={&quot;edgeStyle&quot;:&quot;elbowEdgeStyle&quot;,&quot;elbow&quot;:&quot;vertical&quot;,&quot;curved&quot;:0,&quot;rounded&quot;:0};fontSize=12;" vertex="1" parent="1">
          <mxGeometry x="660" y="40" width="100" height="520" as="geometry" />
        </mxCell>
        <mxCell id="Ftf5trDqvGnBrvdmExgI-28" value="" style="html=1;points=[];perimeter=orthogonalPerimeter;outlineConnect=0;targetShapes=umlLifeline;portConstraint=eastwest;newEdgeStyle={&quot;edgeStyle&quot;:&quot;elbowEdgeStyle&quot;,&quot;elbow&quot;:&quot;vertical&quot;,&quot;curved&quot;:0,&quot;rounded&quot;:0};fontSize=12;" vertex="1" parent="Ftf5trDqvGnBrvdmExgI-27">
          <mxGeometry x="45" y="240" width="10" height="100" as="geometry" />
        </mxCell>
        <mxCell id="Ftf5trDqvGnBrvdmExgI-29" value="Grava dados da integração&lt;br style=&quot;font-size: 12px;&quot;&gt;com PaymentService&lt;br style=&quot;font-size: 12px;&quot;&gt;&lt;div style=&quot;font-size: 12px;&quot;&gt;TABELA:&amp;nbsp;CUSTOMER_ORDER&lt;/div&gt;" style="html=1;verticalAlign=bottom;endArrow=block;edgeStyle=elbowEdgeStyle;elbow=vertical;curved=0;rounded=0;fontSize=12;" edge="1" parent="1" source="Ftf5trDqvGnBrvdmExgI-2" target="Ftf5trDqvGnBrvdmExgI-14">
          <mxGeometry relative="1" as="geometry">
            <mxPoint x="330" y="360" as="sourcePoint" />
            <Array as="points">
              <mxPoint x="425" y="370" />
            </Array>
            <mxPoint x="510" y="370" as="targetPoint" />
          </mxGeometry>
        </mxCell>
        <mxCell id="Ftf5trDqvGnBrvdmExgI-30" value="return" style="html=1;verticalAlign=bottom;endArrow=open;dashed=1;endSize=8;edgeStyle=elbowEdgeStyle;elbow=vertical;curved=0;rounded=0;fontSize=12;" edge="1" parent="1" source="Ftf5trDqvGnBrvdmExgI-14" target="Ftf5trDqvGnBrvdmExgI-2">
          <mxGeometry relative="1" as="geometry">
            <mxPoint x="330" y="390" as="targetPoint" />
            <Array as="points">
              <mxPoint x="385" y="390" />
            </Array>
            <mxPoint x="510" y="390" as="sourcePoint" />
          </mxGeometry>
        </mxCell>
        <mxCell id="Ftf5trDqvGnBrvdmExgI-31" value="Solicita QR Code" style="html=1;verticalAlign=bottom;endArrow=block;edgeStyle=elbowEdgeStyle;elbow=vertical;curved=0;rounded=0;fontSize=12;" edge="1" parent="1">
          <mxGeometry relative="1" as="geometry">
            <mxPoint x="555" y="330" as="sourcePoint" />
            <Array as="points">
              <mxPoint x="565" y="330" />
            </Array>
            <mxPoint x="705" y="330" as="targetPoint" />
          </mxGeometry>
        </mxCell>
        <mxCell id="Ftf5trDqvGnBrvdmExgI-32" value="return" style="html=1;verticalAlign=bottom;endArrow=open;dashed=1;endSize=8;edgeStyle=elbowEdgeStyle;elbow=vertical;curved=0;rounded=0;fontSize=12;" edge="1" parent="1">
          <mxGeometry relative="1" as="geometry">
            <mxPoint x="555" y="350" as="targetPoint" />
            <Array as="points">
              <mxPoint x="690" y="350" />
            </Array>
            <mxPoint x="705" y="350" as="sourcePoint" />
          </mxGeometry>
        </mxCell>
        <mxCell id="Ftf5trDqvGnBrvdmExgI-33" value="" style="dashed=0;outlineConnect=0;html=1;align=center;labelPosition=center;verticalLabelPosition=bottom;verticalAlign=top;shape=mxgraph.webicons.json;gradientColor=#DFDEDE;fontSize=12;" vertex="1" parent="1">
          <mxGeometry x="90" y="120" width="22.4" height="22.4" as="geometry" />
        </mxCell>
        <mxCell id="Ftf5trDqvGnBrvdmExgI-34" value="" style="dashed=0;outlineConnect=0;html=1;align=center;labelPosition=center;verticalLabelPosition=bottom;verticalAlign=top;shape=mxgraph.webicons.json;gradientColor=#DFDEDE;fontSize=12;" vertex="1" parent="1">
          <mxGeometry x="147.6" y="510" width="32.4" height="32.4" as="geometry" />
        </mxCell>
        <mxCell id="Ftf5trDqvGnBrvdmExgI-35" value="Actor" style="shape=umlActor;verticalLabelPosition=bottom;verticalAlign=top;html=1;outlineConnect=0;fontSize=12;" vertex="1" parent="1">
          <mxGeometry x="20" y="70" width="30" height="60" as="geometry" />
        </mxCell>
      </root>
    </mxGraphModel>
  </diagram>
</mxfile>
